<svg width="80" height="80" viewBox="0 0 80 80" fill="none" xmlns="http://www.w3.org/2000/svg">
<g style="mix-blend-mode:luminosity">
<rect width="80" height="80" fill="white"/>
<path d="M56.4497 43.7314H23.6686V46.6383H56.4497V43.7314Z" fill="black"/>
<path d="M44.4971 27.9311L46.6983 33.4167L50.6036 31.3771L47.219 23.9458H42.2959L35.3846 36.7221C35.3846 36.7221 38.7929 36.6283 40.9704 34.9873C41.5148 34.6826 43.077 30.6504 44.4971 27.9311Z" fill="black"/>
<path d="M50.6272 31.377L46.7219 33.4165C43.3846 35.1044 40.213 36.6047 38.4852 37.0736C33.9645 38.3629 28.4734 39.1365 26.5089 37.4018C24.6627 35.7608 28.9467 28.9389 37.0414 27.4152C38.3669 27.1338 39.1242 27.2042 39.1242 27.2042C39.1242 27.2042 38.5799 24.8599 38.1302 24.3676C37.5148 23.6409 36.9231 23.4768 36.0473 23.594C34.2958 23.6878 26.8166 25.6804 23.8816 31.8224C22.2485 35.3154 24.426 38.8552 25.8461 39.8867C26.5089 40.3555 30.7456 44.1298 40.5444 40.3321C50.2012 36.6281 58.8639 30.7909 58.8639 30.7909V26.876C58.8639 26.876 55.0532 29.0327 50.6272 31.377Z" fill="black"/>
<path d="M48.071 36.98C48.426 37.8239 49.4674 40.262 49.7278 40.9652C50.0828 41.7388 50.9349 41.7388 50.9349 41.7388H55.4319L52.071 34.8467C50.8876 35.5265 49.5148 36.2532 48.071 36.98Z" fill="black"/>
<path d="M58.8639 25.3523C58.8639 25.3523 53.7041 28.2827 52.497 28.7281C51.3846 29.1735 50.9822 28.5874 50.8402 28.3764C50.5325 27.931 50.0592 26.4307 49.9882 26.2197C50.0118 26.2197 50.2959 26.29 50.9586 26.1259C51.7396 25.9384 58.8639 22 58.8639 22V25.3523Z" fill="black"/>
<path d="M15.9763 55.8045H13.4911L12.9467 56.8828H12L14.3195 52.4287H15.2899L17.6095 56.8828H16.497L15.9763 55.8045ZM15.645 55.1246L14.7692 53.3664L13.8935 55.1246H15.645Z" fill="black"/>
<path d="M18.1539 56.2499L18.6036 55.6169C19.1953 56.0389 19.9764 56.2499 20.6627 56.2499C21.3728 56.2499 21.9645 56.0389 21.9645 55.7107C21.9645 55.3591 21.3255 55.2418 20.5681 55.0778C19.5503 54.8668 18.3196 54.6089 18.3196 53.7181C18.3196 52.8976 19.361 52.3818 20.5444 52.3818C21.3491 52.3818 22.2012 52.6163 22.8166 53.0148L22.3669 53.6477C21.8698 53.2727 21.1835 53.0851 20.5444 53.0851C19.9053 53.0851 19.29 53.2727 19.29 53.6009C19.29 53.9056 19.8817 54.0228 20.5917 54.1635C21.6332 54.3745 22.9349 54.6323 22.9349 55.5935C22.9349 56.4609 21.8698 56.9766 20.6627 56.9766C19.7397 56.9532 18.7929 56.6953 18.1539 56.2499Z" fill="black"/>
<path d="M23.5503 56.2499L24 55.6169C24.5917 56.0389 25.3728 56.2499 26.0592 56.2499C26.7692 56.2499 27.3609 56.0389 27.3609 55.7107C27.3609 55.3591 26.7219 55.2418 25.9645 55.0778C24.9467 54.8668 23.716 54.6089 23.716 53.7181C23.716 52.8976 24.7574 52.3818 25.9408 52.3818C26.7456 52.3818 27.5976 52.6163 28.213 53.0148L27.7633 53.6477C27.2663 53.2727 26.5799 53.0851 25.9408 53.0851C25.3018 53.0851 24.6864 53.2727 24.6864 53.6009C24.6864 53.9056 25.2781 54.0228 25.9882 54.1635C27.0296 54.3745 28.3314 54.6323 28.3314 55.5935C28.3314 56.4609 27.2663 56.9766 26.0592 56.9766C25.1598 56.9532 24.213 56.6953 23.5503 56.2499Z" fill="black"/>
<path d="M29.2545 54.8902V52.4522H30.2249V54.9371C30.2249 55.7341 30.7929 56.2733 31.6213 56.2733C32.4497 56.2733 33.0178 55.7341 33.0178 54.9371V52.4287H33.9408V54.8668C33.9408 56.1092 32.9941 56.9532 31.5977 56.9532C30.2012 56.9532 29.2545 56.1327 29.2545 54.8902Z" fill="black"/>
<path d="M35.1716 52.4287H37.6095C38.7456 52.4287 39.645 52.8741 39.645 53.8587C39.645 54.6323 39.077 55.0309 38.3196 55.195L39.787 56.8828H38.6746L37.3491 55.3356H36.142V56.8828H35.1716V52.4287ZM37.5148 54.6323C38.2012 54.6323 38.6273 54.351 38.6273 53.8587C38.6273 53.3899 38.2012 53.132 37.5148 53.132H36.1184V54.6323H37.5148Z" fill="black"/>
<path d="M44.355 55.8045H41.8698L41.3255 56.8828H40.355L42.6746 52.4287H43.645L45.9645 56.8828H44.8994L44.355 55.8045ZM44 55.1246L43.1243 53.3664L42.2485 55.1246H44Z" fill="black"/>
<path d="M47.8343 53.7181V56.8828H46.8639V52.4287H47.8343L50.5799 55.5935V52.4287H51.5503V56.8828H50.5799L47.8343 53.7181Z" fill="black"/>
<path d="M55.361 52.3584C56.0473 52.3584 56.7811 52.5694 57.3728 52.9914L56.9231 53.5774C56.4497 53.2492 56.0473 53.0617 55.432 53.0617C54.3669 53.0617 53.5385 53.7181 53.5385 54.6792C53.5385 55.6404 54.3669 56.2968 55.432 56.2968C56.071 56.2968 56.497 56.1092 57.0178 55.7576L57.4675 56.3437C56.8757 56.7656 56.1183 57.0001 55.3846 57.0001C53.9408 57.0001 52.5681 56.1561 52.5681 54.7027C52.5444 53.2023 53.9172 52.3584 55.361 52.3584Z" fill="black"/>
<path d="M58.2722 55.5935V52.4287H62.3432V53.132H59.2426V54.2104H62.0829V54.9136H59.2426V55.5935C59.2426 55.992 59.432 56.1561 59.8107 56.1561H62.4379V56.8594H59.574C58.7456 56.8828 58.2722 56.414 58.2722 55.5935Z" fill="black"/>
<path d="M63.2189 56.2499L63.6686 55.6169C64.2604 56.0389 65.0414 56.2499 65.7278 56.2499C66.4379 56.2499 67.0296 56.0389 67.0296 55.7107C67.0296 55.3591 66.3905 55.2418 65.6331 55.0778C64.6154 54.8668 63.3846 54.6089 63.3846 53.7181C63.3846 52.8976 64.426 52.3818 65.6095 52.3818C66.4142 52.3818 67.2663 52.6163 67.8817 53.0148L67.432 53.6477C66.9349 53.2727 66.2485 53.0851 65.6095 53.0851C64.9704 53.0851 64.355 53.2727 64.355 53.6009C64.355 53.9056 64.9467 54.0228 65.6568 54.1635C66.6982 54.3745 68 54.6323 68 55.5935C68 56.4609 66.9349 56.9766 65.7278 56.9766C64.8047 56.9532 63.858 56.6953 63.2189 56.2499Z" fill="black"/>
</g>
</svg>
