<svg width="80" height="80" viewBox="0 0 80 80" fill="none" xmlns="http://www.w3.org/2000/svg">
<g style="mix-blend-mode:luminosity">
<path fill-rule="evenodd" clip-rule="evenodd" d="M5.03488 49.9558C5.05774 49.9155 5.09066 49.8818 5.13043 49.858L22.114 40.0583L39.2256 49.938C39.3067 49.9844 39.3742 50.0513 39.4213 50.1321C39.4683 50.2128 39.4932 50.3046 39.4936 50.398V69.8495C39.4932 69.943 39.4683 70.0347 39.4213 70.1155C39.3742 70.1962 39.3067 70.2632 39.2256 70.3095L22.514 79.9653C22.334 80.0653 22.114 79.9373 22.114 79.7333V60.4338C22.1148 60.34 22.0908 60.2477 22.0444 60.1663C21.9981 60.0848 21.931 60.017 21.85 59.9698L5.13043 50.318C5.09066 50.2942 5.05774 50.2605 5.03488 50.2202C5.01202 50.1799 5 50.1344 5 50.088C5 50.0417 5.01202 49.9961 5.03488 49.9558ZM5.03488 9.81682C5.05774 9.77651 5.09066 9.74282 5.13043 9.71903L21.846 0.0712727C21.9269 0.0245811 22.0186 0 22.112 0C22.2054 0 22.2971 0.0245811 22.378 0.0712727L39.2256 9.79503C39.3073 9.84174 39.3752 9.90931 39.4223 9.99082C39.4693 10.0723 39.494 10.1649 39.4936 10.259V30.0185L22.114 40.0543V20.2948C22.1148 20.201 22.0908 20.1087 22.0444 20.0273C21.9981 19.9458 21.931 19.878 21.85 19.8308L5.13043 10.179C5.09066 10.1552 5.05774 10.1215 5.03488 10.0812C5.01202 10.0409 5 9.99537 5 9.94903C5 9.90269 5.01202 9.85714 5.03488 9.81682ZM56.6089 39.9031L39.4934 30.0193L56.6089 20.1396C56.6898 20.0929 56.7816 20.0683 56.8749 20.0683C56.9683 20.0683 57.0601 20.0929 57.1409 20.1396L73.9885 29.8673C74.0689 29.9142 74.1356 29.9814 74.1819 30.0621C74.2282 30.1428 74.2526 30.2343 74.2525 30.3273V49.7828C74.2526 49.8759 74.2282 49.9674 74.1819 50.0481C74.1356 50.1288 74.0689 50.1959 73.9885 50.2428L57.2729 59.8946C57.0969 59.9986 56.8729 59.8666 56.8729 59.6666V40.3631C56.873 40.27 56.8487 40.1786 56.8023 40.0978C56.756 40.0171 56.6893 39.95 56.6089 39.9031Z" fill="black"/>
</g>
</svg>
