<svg width="32" height="32" viewBox="0 0 32 32" fill="none" xmlns="http://www.w3.org/2000/svg">
<circle cx="16" cy="16" r="16" fill="#D9D9D9"/>
<path d="M15.6447 23C15.538 23 15.438 22.96 15.3447 22.88C15.2647 22.8 15.2247 22.7 15.2247 22.58C15.2247 22.5267 15.238 22.4667 15.2647 22.4L20.0847 9.5C20.1247 9.36667 20.198 9.25333 20.3047 9.16C20.4247 9.05333 20.5847 9 20.7847 9H22.9647C23.1647 9 23.318 9.05333 23.4247 9.16C23.5314 9.25333 23.6114 9.36667 23.6647 9.5L28.4847 22.4C28.498 22.4667 28.5047 22.5267 28.5047 22.58C28.5047 22.7 28.4647 22.8 28.3847 22.88C28.3047 22.96 28.2114 23 28.1047 23H26.3647C26.178 23 26.038 22.96 25.9447 22.88C25.8647 22.7867 25.8114 22.7 25.7847 22.62L24.8447 20.18H18.9047L17.9647 22.62C17.938 22.7 17.878 22.7867 17.7847 22.88C17.7047 22.96 17.5714 23 17.3847 23H15.6447ZM19.6047 17.88H24.1447L21.8647 11.7L19.6047 17.88Z" fill="black"/>
<path d="M6.48 23C6.34667 23 6.23333 22.9533 6.14 22.86C6.04667 22.7667 6 22.6533 6 22.52V9.5C6 9.35333 6.04667 9.23333 6.14 9.14C6.23333 9.04667 6.34667 9 6.48 9H11.84C12.88 9 13.7867 9.16667 14.56 9.5C15.3333 9.82 15.9333 10.3133 16.36 10.98C16.7867 11.6333 17 12.4533 17 13.44C17 14.44 16.7867 15.2667 16.36 15.92C15.9333 16.56 15.3333 17.04 14.56 17.36C13.7867 17.68 12.88 17.84 11.84 17.84H8.86V22.52C8.86 22.6533 8.81333 22.7667 8.72 22.86C8.64 22.9533 8.52667 23 8.38 23H6.48ZM8.82 15.62H11.74C12.5133 15.62 13.1067 15.44 13.52 15.08C13.9333 14.7067 14.14 14.16 14.14 13.44C14.14 12.7733 13.9467 12.24 13.56 11.84C13.1733 11.4267 12.5667 11.22 11.74 11.22H8.82V15.62Z" fill="black"/>
</svg>
