<svg width="80" height="80" viewBox="0 0 80 80" fill="none" xmlns="http://www.w3.org/2000/svg">
<g style="mix-blend-mode:luminosity" clip-path="url(#clip0_1711_7504)">
<path d="M40 20.8696H8.69565C8.69565 20.8696 0 20.8696 0 40C0 59.1304 8.69565 59.1304 8.69565 59.1304H17.3913C17.3913 59.1304 17.3913 57.3913 17.3913 50.4348C17.3913 43.4783 22.6087 38.2609 29.5652 38.2609C36.5217 38.2609 45.1944 38.2609 50.4233 38.2609C55.6522 38.2609 59.1304 34.7826 59.2024 29.4817C59.2744 24.1808 59.1304 8.69565 59.1304 8.69565C59.1304 8.69565 59.1304 0 40 0C20.8696 0 20.8696 8.69565 20.8696 8.69565V17.3913H40V20.8696Z" fill="#387EB8"/>
<path d="M40 59.1305H71.3044C71.3044 59.1305 80 59.1305 80 40.0001C80 20.8696 71.3044 20.8696 71.3044 20.8696H62.6087C62.6087 20.8696 62.6087 22.6088 62.6087 29.5653C62.6087 36.5218 57.3913 41.7392 50.4348 41.7392C43.4783 41.7392 34.7826 41.7392 29.5652 41.7392C24.3478 41.7392 20.8696 45.2175 20.8696 50.4348C20.8696 55.6522 20.8696 71.3044 20.8696 71.3044C20.8696 71.3044 20.8696 80.0001 40 80.0001C59.1304 80.0001 59.1304 71.3044 59.1304 71.3044V62.6088H40V59.1305Z" fill="#FFC331"/>
<path d="M29.5652 12.1738C31.4862 12.1738 33.0435 10.6165 33.0435 8.69555C33.0435 6.77456 31.4862 5.21729 29.5652 5.21729C27.6442 5.21729 26.087 6.77456 26.087 8.69555C26.087 10.6165 27.6442 12.1738 29.5652 12.1738Z" fill="white"/>
<path d="M50.4348 74.7827C52.3558 74.7827 53.9131 73.2254 53.9131 71.3044C53.9131 69.3834 52.3558 67.8262 50.4348 67.8262C48.5138 67.8262 46.9565 69.3834 46.9565 71.3044C46.9565 73.2254 48.5138 74.7827 50.4348 74.7827Z" fill="white"/>
</g>
<defs>
<clipPath id="clip0_1711_7504">
<rect width="80" height="80" fill="white"/>
</clipPath>
</defs>
</svg>
