<svg width="80" height="80" viewBox="0 0 80 80" fill="none" xmlns="http://www.w3.org/2000/svg">
<g style="mix-blend-mode:luminosity">
<rect width="80" height="80" fill="white"/>
<path d="M63.9 16H16V63.9H63.9V16Z" fill="black"/>
<path d="M53.654 29.2346C50.6656 30.9423 49.8117 31.1131 46.5672 33.0769C48.4456 31.0277 49.1287 30.1738 50.2387 28.4662C47.2502 28.6369 42.9811 28.9785 39.9073 29.6615C42.5542 28.21 47.9333 26.6731 50.6656 26.2462C49.9825 25.3924 44.7741 22.4894 43.408 21.9771C47.5918 22.3186 52.6294 23.8555 55.1055 25.3924C56.0447 25.0508 57.0693 25.0508 58.8624 24.8801C58.4355 25.6485 58.3501 26.1608 56.6424 27.2708C57.1547 28.5516 55.9593 35.8091 55.0201 37.6876C55.0201 34.6992 54.764 30.8569 53.654 29.2346Z" fill="white"/>
<path d="M31.9667 55.1059C30.259 54.5083 29.0636 53.7398 27.6975 52.4591C28.1244 51.3491 28.5513 50.4953 29.3198 49.3853C27.9536 49.556 26.929 49.7268 25.7337 49.9829C24.7945 48.2753 24.2822 46.653 23.8552 44.3477C23.5991 46.7384 23.5137 48.4461 23.8552 50.4099C22.7453 50.7514 21.9768 51.0076 21.123 51.3491C22.4037 52.1175 23.4283 52.7152 24.7945 53.3983C25.5629 55.0206 26.3314 56.1305 27.6121 57.3259C27.356 56.3013 27.2706 55.4475 27.356 54.3375C28.8929 54.8498 30.1736 55.1059 31.9667 55.1059Z" fill="white"/>
<path d="M36.4066 31.1133C35.8943 31.7963 35.2966 33.0771 35.1258 33.6748C39.4804 34.2725 42.9811 36.4924 42.9811 36.4924C39.1389 35.8094 37.175 35.8947 35.7235 36.0655C34.272 36.2363 34.0159 36.407 34.0159 36.407C32.9913 38.7124 32.3936 42.5546 32.3936 42.5546C31.7105 40.847 30.6859 37.517 30.6859 37.517C28.7221 38.5416 24.2822 42.7254 24.2822 42.7254C26.7583 37.8586 29.2344 35.6386 29.2344 35.6386C28.3806 34.7848 26.1606 34.3578 24.5383 34.2725C25.3921 33.9309 27.5267 33.504 29.2344 33.4186C30.9421 33.3332 31.8813 33.504 31.8813 33.504C33.3328 32.2233 35.6381 31.1987 36.4066 31.1133Z" fill="white"/>
<path d="M41.1027 52.1175C40.3342 53.1421 39.6511 53.9959 38.7973 54.9351C37.3458 55.362 36.1504 55.5328 34.6989 55.5328C35.5527 55.9597 36.4066 56.2159 37.3458 56.472C36.4066 57.3259 35.6381 57.9235 34.7843 58.4358C36.3212 58.0943 38.285 57.4112 39.7365 56.5574C40.505 56.5574 41.188 56.5574 41.7003 56.472C41.5296 56.0451 41.4442 55.7036 41.3588 55.1059C42.7249 53.9959 43.7495 53.0567 44.8595 51.8613C43.6642 52.7152 42.5542 53.3128 41.188 53.9959C41.1027 53.3982 41.1027 52.8859 41.1027 52.1175Z" fill="white"/>
</g>
</svg>
