<svg width="80" height="80" viewBox="0 0 80 80" fill="none" xmlns="http://www.w3.org/2000/svg">
<g style="mix-blend-mode:luminosity">
<rect width="80" height="80" fill="white"/>
<path d="M18.5234 43.0553L17.4049 40.7759H15.9825L17.3208 37.9292L20.6935 44.73H23.8361L18.3522 34.3194H16.2793L11 44.728L14.1336 44.729L14.9238 43.0553H18.5234Z" fill="black"/>
<path d="M35.1149 40.98C36.7267 40.4803 37.4845 39.2639 37.4845 37.781C37.4845 35.8842 36.1807 34.3458 33.4969 34.3458H28.0758V44.7563L30.5893 44.7553L30.5883 36.5444H33.6691C34.581 36.5464 34.9599 37.1056 34.9599 37.7749C34.9599 38.4442 34.5617 38.9812 33.6509 38.9812H31.495L34.7562 44.7553H37.3346C37.3346 44.7553 35.1027 40.982 35.1149 40.98Z" fill="black"/>
<path d="M26.9724 34.3244H24.3738V44.7329H26.9724V34.3244Z" fill="black"/>
<path d="M56.1405 34.2957L56.1415 40.1485C56.1415 41.9373 55.0919 42.6883 53.8022 42.6883C52.5105 42.6883 51.47 41.9403 51.47 40.1506V34.2957H48.8663V40.1657C48.8663 43.9088 51.0729 45 53.8022 45C56.5325 45 58.7442 43.9088 58.7442 40.1657L58.7432 34.2957H56.1405Z" fill="black"/>
<path d="M44.6311 42.5323H40.9636V40.4821H44.6321C45.2349 40.4901 45.7222 40.9404 45.7222 41.5006C45.7222 42.0629 45.2339 42.5323 44.6311 42.5323ZM40.9636 36.5189H44.5663C45.0607 36.524 45.4781 36.9035 45.4781 37.3992C45.4781 37.8948 45.0404 38.2895 44.546 38.2855H40.9636V36.5189ZM46.7029 39.3868C47.3807 38.9103 47.637 38.123 47.637 37.2558C47.637 35.6256 46.2602 34.3193 44.5693 34.3193H38.4501V44.7289H44.8104V44.7329C46.5955 44.7329 48.0828 43.359 48.0828 41.6793C48.0828 40.583 47.4212 39.7724 46.7029 39.3868Z" fill="black"/>
<path d="M65.2788 38.353C63.1716 37.8967 62.4594 37.6948 62.4594 37.0286C62.4594 36.4401 63.2222 36.1453 64.4278 36.1453C65.5656 36.1453 66.9383 36.6278 67.7468 37.1104L68.5684 34.9915C67.3456 34.4848 65.8756 34.0002 63.9314 34.0002C61.3824 34.0002 59.7898 35.4851 59.7898 37.3001C59.7898 39.1172 61.1018 39.9157 63.6994 40.4648C65.7165 40.8898 66.2626 41.1432 66.2626 41.769C66.2626 42.3929 65.4531 42.623 64.361 42.623C62.9477 42.623 61.5871 42.1546 60.3045 41.6045L59.5294 43.6709C61.0623 44.3795 62.6539 44.9458 64.5504 44.9458C67.7103 44.9458 69 43.4407 69 41.6873C69 40.1276 67.915 38.9244 65.2788 38.353Z" fill="black"/>
</g>
</svg>
