<svg width="80" height="80" viewBox="0 0 80 80" fill="none" xmlns="http://www.w3.org/2000/svg">
<g style="mix-blend-mode:luminosity">
<rect width="80" height="80" fill="white"/>
<path d="M73 32V48.5H7V32H73Z" fill="black"/>
<path d="M70.4235 41.087C70.4235 41.087 70.4108 41.1146 70.3661 41.1146H66.8066C66.7492 41.1146 66.7215 41.1422 66.7215 41.1422C66.7215 41.1422 66.679 41.1571 66.679 41.2272V45.0209C66.679 45.0782 66.6513 45.0909 66.6513 45.0909C66.6513 45.0909 66.6364 45.1207 66.5939 45.1207H63.7642C63.7238 45.1207 63.694 45.0909 63.694 45.0909C63.694 45.0909 63.6791 45.0782 63.6791 45.0081V41.2123C63.6791 41.172 63.645 41.1422 63.645 41.1422C63.645 41.1422 63.6238 41.1146 63.5876 41.1146H59.9345C59.8643 41.1146 59.8515 41.0998 59.8515 41.0998C59.8515 41.0998 59.8239 41.0722 59.8239 40.9872V38.211C59.8239 38.177 59.8515 38.1409 59.8515 38.1409C59.8515 38.1409 59.8643 38.1282 59.8941 38.1282H63.6238C63.6536 38.1282 63.6535 38.1133 63.6535 38.1133C63.6535 38.1133 63.6791 38.0984 63.6791 38.0708V34.7466C63.6791 34.7062 63.694 34.6765 63.694 34.6765C63.694 34.6765 63.7238 34.6616 63.8067 34.6616H66.5811C66.6364 34.6616 66.6513 34.6765 66.6513 34.6765C66.6513 34.6765 66.679 34.7062 66.679 34.7615V38.0984H70.3044C70.3959 38.0984 70.4235 38.1133 70.4235 38.1133C70.4235 38.1133 70.4661 38.1282 70.4661 38.211V41.0169C70.4661 41.0445 70.4235 41.087 70.4235 41.087ZM59.3792 44.9954C59.3664 45.0782 59.3516 45.1058 59.3516 45.1058C59.3516 45.1058 59.3367 45.1356 59.2664 45.1356H53.5283C53.3624 45.1356 53.3177 45.0909 53.3177 45.0909C53.3177 45.0909 53.29 45.0357 53.3028 44.9104L54.7262 35.0355C54.7411 34.9165 54.7687 34.874 54.7687 34.874C54.7687 34.874 54.7836 34.874 54.9155 34.874H57.5282C57.5984 34.874 57.6197 34.8868 57.6197 34.8868C57.6197 34.8868 57.6346 34.9314 57.6197 34.9866L56.5495 42.7035C56.5346 42.7863 56.5772 42.7948 56.5772 42.7948C56.5772 42.7948 56.6048 42.8097 56.7197 42.8097H59.5558C59.6175 42.8097 59.6388 42.8352 59.6388 42.8352C59.6388 42.8352 59.6537 42.85 59.6537 42.9201L59.3792 44.9954ZM52.0667 45.1483H49.5178C49.4625 45.1759 49.4178 45.1207 49.4178 45.1207C49.4178 45.1207 49.4051 45.1058 49.3902 45.0209L49.0519 43.4469C49.0242 43.3704 48.9966 43.3279 48.9966 43.3279C48.9966 43.3279 48.9264 43.2855 48.8413 43.2855H45.5265C45.4626 43.2855 45.4201 43.3279 45.4201 43.3279C45.4201 43.3279 45.3648 43.3768 45.335 43.4618L44.5818 45.0655C44.5691 45.1058 44.5414 45.1207 44.5414 45.1207C44.5414 45.1207 44.4839 45.1356 44.4563 45.1356H41.584C41.5138 45.1483 41.4926 45.1058 41.4926 45.1058C41.4926 45.1058 41.4798 45.0782 41.5138 45.0209L46.5754 34.9441C46.603 34.9314 46.6307 34.8868 46.6307 34.8868C46.6307 34.8868 46.6605 34.874 46.7435 34.874H49.8774C49.9476 34.874 49.988 34.9165 49.988 34.9165C49.988 34.9165 50.0029 34.9314 50.0178 34.9717L52.122 45.0909C52.122 45.1207 52.1071 45.1356 52.1071 45.1356C52.1071 45.1356 52.1071 45.1483 52.0667 45.1483ZM40.1203 45.1356H37.5714C37.5289 45.1356 37.4884 45.1356 37.4884 45.1356C37.4884 45.1356 37.4799 45.1207 37.465 45.1058L33.9247 38.8376C33.8971 38.81 33.8843 38.81 33.8843 38.81C33.8843 38.81 33.8545 38.81 33.8545 38.8503L32.9758 45.0081C32.9609 45.0782 32.946 45.0909 32.946 45.0909C32.946 45.0909 32.9184 45.1058 32.8758 45.1058H30.3419C30.3014 45.1058 30.2716 45.0782 30.2716 45.0782C30.2716 45.0782 30.2163 45.0209 30.2376 44.9656L31.6227 35.0015C31.6376 34.9441 31.6673 34.9314 31.6673 34.9314C31.6673 34.9314 31.7078 34.8868 31.7503 34.8868H34.58C34.6226 34.8868 34.6502 34.9165 34.6502 34.9165C34.6502 34.9165 34.6779 34.9314 34.6928 34.9717L37.882 40.5602C37.9374 40.6707 37.9799 40.658 37.9799 40.658C37.9799 40.658 38.0225 40.658 38.0501 40.5305L38.8543 34.9717C38.8543 34.9314 38.8799 34.9165 38.8799 34.9165C38.8799 34.9165 38.8948 34.8868 38.9373 34.8868L41.5968 34.9165C41.6543 34.9165 41.6691 34.9314 41.6691 34.9314C41.6691 34.9314 41.6819 34.9441 41.6819 34.9717L40.2458 45.0209C40.2309 45.0782 40.2054 45.1207 40.2054 45.1207C40.2054 45.1207 40.1905 45.1356 40.1203 45.1356ZM28.9759 45.1058L26.4994 45.1207C26.442 45.1207 26.4016 45.0909 26.4016 45.0909C26.4016 45.0909 26.3867 45.0782 26.3718 44.9805L25.9845 43.3768C25.9845 43.3428 25.959 43.3279 25.959 43.3279C25.959 43.3279 25.9441 43.3279 25.9143 43.3279H22.4166C22.3464 43.3279 22.3038 43.3768 22.3038 43.3768C22.3038 43.3768 22.2485 43.4193 22.2059 43.517L21.5081 45.0081C21.4804 45.0655 21.4655 45.0782 21.4655 45.0782C21.4655 45.0782 21.4251 45.1058 21.3889 45.1058H18.5039C18.4188 45.1207 18.4039 45.0782 18.4039 45.0782C18.4039 45.0782 18.389 45.0357 18.4188 44.9805L23.4229 34.9441C23.4442 34.8868 23.4868 34.874 23.4868 34.874C23.4868 34.874 23.5144 34.874 23.5846 34.874H26.7739C26.8313 34.874 26.8717 34.9165 26.8717 34.9165C26.8717 34.9165 26.8866 34.9314 26.9015 34.9717L29.0461 45.0357C29.0461 45.0782 29.0206 45.0909 29.0206 45.0909C29.0206 45.0909 29.0057 45.1058 28.9759 45.1058ZM47.8711 37.7777C47.8711 37.7777 47.8562 37.7777 47.8413 37.8329L46.4498 40.9744C46.4201 41.0722 46.435 41.087 46.435 41.087C46.435 41.087 46.4754 41.1146 46.5052 41.1146L48.5668 41.0998C48.5817 41.0998 48.5945 41.0998 48.5945 41.0998C48.5945 41.0998 48.6093 41.087 48.5945 41.0445L47.8987 37.818C47.886 37.7777 47.8711 37.7777 47.8711 37.7777ZM24.7463 37.818C24.7463 37.818 24.7335 37.818 24.7186 37.8478L23.3251 41.0021C23.2974 41.0445 23.3102 41.0722 23.3102 41.0722C23.3102 41.0722 23.3251 41.087 23.3953 41.087L25.442 41.0998C25.4569 41.0998 25.4633 41.087 25.4633 41.087C25.4633 41.087 25.4782 41.0722 25.4633 41.0297L24.7591 37.8478C24.7591 37.818 24.7463 37.818 24.7463 37.818ZM17.6103 44.7553C17.5955 44.8658 17.5401 44.9508 17.5401 44.9508C17.5401 44.9508 17.4806 45.0081 17.3912 45.0357C16.0466 45.5774 14.5594 45.3947 14.5594 45.3947C12.1467 45.1356 10.6191 43.6572 10.1255 41.754C9.39997 38.9013 10.8382 36.8771 11.1893 36.4416C12.0339 35.4284 13.3573 34.7062 14.6594 34.5363C16.3146 34.3048 17.5401 34.6914 18.0465 34.8613C18.0465 34.8613 18.6018 35.0355 19.0167 35.318C19.2273 35.4582 19.2571 35.5134 19.2571 35.5134C19.2571 35.5134 19.2699 35.5431 19.2124 35.7598L18.8209 37.8032C18.806 37.8881 18.755 37.9306 18.755 37.9306C18.755 37.9306 18.7273 37.9455 18.5295 37.818C17.2784 36.9323 15.8147 37.0385 15.8147 37.0385C14.7019 37.1086 13.3998 37.6927 13.0126 39.1668C12.6679 40.4753 13.0275 41.5713 13.8062 42.2234C14.336 42.6886 15.1594 42.9201 16.0253 42.8798C16.9678 42.8097 17.721 42.4358 17.6657 42.4634C17.6657 42.4634 17.7061 42.4486 17.7508 42.4358C17.9465 42.3381 17.9891 42.3509 17.9891 42.3509C17.9891 42.3509 18.0316 42.3933 18.0018 42.5208L17.6103 44.7553Z" fill="white"/>
</g>
</svg>
