<svg width="80" height="80" viewBox="0 0 80 80" fill="none" xmlns="http://www.w3.org/2000/svg">
<g style="mix-blend-mode:luminosity">
<rect width="80" height="80" fill="white"/>
<mask id="mask0_1738_14764" style="mask-type:luminance" maskUnits="userSpaceOnUse" x="13" y="32" width="54" height="15">
<path d="M66.7197 32.499H13.351V46.4447H66.7197V32.499Z" fill="white"/>
</mask>
<g mask="url(#mask0_1738_14764)">
<path d="M52.5193 45.9421V45.1756H53.7097V44.7145H52.5193V44.0016H53.9902V43.5405H52.0114V46.404H53.9902V45.9429L52.5193 45.9421ZM48.3009 44.0107C48.3694 44.0069 48.437 44.0168 48.5009 44.0402C48.5647 44.0636 48.6233 44.1007 48.6734 44.1483C48.7228 44.1959 48.7624 44.2526 48.7897 44.3161C48.8171 44.3796 48.8308 44.4476 48.8308 44.5172C48.8308 44.586 48.8171 44.6548 48.7897 44.7183C48.7624 44.7818 48.7236 44.8392 48.6734 44.8861C48.624 44.9337 48.5655 44.97 48.5009 44.9942C48.437 45.0176 48.3686 45.0282 48.3009 45.0237H47.5407V44.0099H48.3009V44.0107ZM47.0329 46.404H47.5407V45.4893H48.2964C48.9304 45.4893 49.3409 45.1061 49.3409 44.5089C49.3409 43.9238 48.9266 43.5405 48.2964 43.5405H47.0322L47.0329 46.404ZM41.8036 43.5405V45.2958C41.8036 46.0004 42.3076 46.4456 43.0229 46.4456C43.7383 46.4456 44.2423 46.0004 44.2423 45.3003V43.5413H43.7383V45.3003C43.7383 45.6874 43.4699 45.9679 43.0229 45.9679C42.5843 45.9679 42.3121 45.6874 42.3121 45.2966V43.5413L41.8036 43.5405ZM37.6993 45.9671C37.4454 45.9573 37.2059 45.8477 37.0303 45.6624C36.8547 45.4772 36.7559 45.23 36.7559 44.9723C36.7559 44.7152 36.8539 44.4681 37.0303 44.2821C37.2059 44.0969 37.4461 43.9873 37.6993 43.9774C38.2314 43.9774 38.6381 44.3857 38.6381 44.9745C38.6442 45.103 38.6252 45.2316 38.5803 45.3525C38.5362 45.4735 38.4678 45.5831 38.3796 45.6761C38.2915 45.769 38.1858 45.8431 38.0687 45.893C37.9524 45.9429 37.8262 45.9678 37.6993 45.9671ZM37.6993 43.4989C37.4119 43.5004 37.1322 43.5874 36.8942 43.7499C36.6563 43.9124 36.4708 44.143 36.3621 44.4121C36.2526 44.6812 36.2253 44.9768 36.2815 45.2626C36.3378 45.5475 36.4769 45.8099 36.6798 46.0155C36.8828 46.2211 37.142 46.3609 37.4233 46.4176C37.7046 46.4743 37.9965 46.4449 38.2618 46.3337C38.5271 46.2226 38.7537 46.0336 38.9133 45.7925C39.0729 45.5506 39.1581 45.2663 39.1588 44.9753C39.1634 44.7803 39.1284 44.586 39.0562 44.4046C38.9848 44.2231 38.8768 44.0591 38.7407 43.9207C38.6047 43.7824 38.442 43.6743 38.2626 43.6025C38.0832 43.5292 37.8916 43.4944 37.6993 43.4989ZM32.6075 44.0107C32.9488 44.0107 33.1358 44.2163 33.1358 44.4764C33.1358 44.7485 32.9526 44.9541 32.6075 44.9541H31.9286V44.0099H32.6075V44.0107ZM31.4216 46.404H31.9294V45.4236H32.5102L33.2293 46.404H33.8306L33.0134 45.3124C33.1997 45.2641 33.3639 45.1529 33.4794 44.9972C33.595 44.8415 33.6543 44.6502 33.6474 44.456C33.6474 43.8996 33.2369 43.5413 32.6029 43.5413H31.4208L31.4216 46.404ZM28.6948 44.8506H27.48V45.2746H28.2196V45.8431C28.0281 45.9338 27.8175 45.9769 27.6062 45.9709C27.0254 45.9709 26.5944 45.5997 26.5944 44.97C26.5906 44.8392 26.6126 44.7092 26.6597 44.5875C26.7069 44.4658 26.7783 44.3554 26.8688 44.2624C26.96 44.1695 27.068 44.0961 27.1881 44.0477C27.3074 43.9986 27.4359 43.9752 27.5651 43.9782C27.7111 43.9737 27.8563 43.9994 27.9931 44.053C28.1292 44.1067 28.2531 44.1876 28.358 44.2912L28.659 43.9079C28.3603 43.6335 27.9688 43.4876 27.5659 43.4997C26.7205 43.4997 26.0789 44.1218 26.0789 44.9708C26.0789 45.865 26.7129 46.4456 27.6069 46.4456C27.9931 46.4494 28.3724 46.3375 28.6955 46.1243L28.6948 44.8506Z" fill="black"/>
<path d="M42.3859 41.63H49.2725V40.7773H43.5657V38.0476H47.8517V37.185H43.5657V34.6708H49.2717V33.8203H42.3851V41.63H42.3859Z" fill="black"/>
<path d="M45.9649 32.5586L45.0329 33.6199L47.9596 32.5586H45.9649Z" fill="black"/>
<path d="M59.7578 33.8211V41.6292H66.7197V40.7765H60.8335V33.8203H59.7578V33.8211Z" fill="black"/>
<path d="M53.7348 33.8213L49.819 41.6302H51.1425L52.1445 39.6088H56.8417L57.852 41.6302H59.1626L55.2423 33.8213H53.7348ZM52.6401 38.6299L54.4851 34.9L56.3529 38.6299H52.6401Z" fill="black"/>
<path d="M38.6488 38.365C40.4132 37.888 40.585 36.556 40.5758 36.0805C40.4709 34.6858 39.5435 33.8218 37.8779 33.8218H33.0233V41.63H34.1302V38.3537H37.2903L39.615 41.6284H41.0099C41.0099 41.6284 39.3375 39.4241 38.6488 38.3635V38.365ZM37.7266 37.4299H34.1302V34.7455H37.8528C38.7088 34.7455 39.1915 35.1507 39.3649 35.6663C39.4166 35.8553 39.4302 36.0533 39.4044 36.2484C39.3785 36.4426 39.3147 36.6301 39.2159 36.7995C38.9049 37.3211 38.3143 37.4322 37.7266 37.4322" fill="black"/>
<path d="M26.3351 41.3194C24.1739 41.3194 22.3935 39.5588 22.3935 37.4376C22.3935 35.3187 24.0895 33.4742 26.4187 33.4742C26.9349 33.4697 27.4465 33.5694 27.9247 33.7667C28.4029 33.964 28.8377 34.2551 29.2041 34.624C29.5705 34.9921 29.8617 35.4306 30.0601 35.9136C30.2585 36.3967 30.3604 36.9145 30.3604 37.4376C30.3596 39.5581 28.4956 41.3194 26.3351 41.3194ZM26.3724 32.499C23.2487 32.499 21.1194 34.7321 21.1194 37.4346C21.1194 40.28 23.4715 42.2885 26.3724 42.2885C29.2733 42.2885 31.623 40.3087 31.623 37.4346C31.623 34.7321 29.4671 32.499 26.3724 32.499Z" fill="black"/>
<path d="M18.3326 36.5835H19.1308L20.5805 33.8213H19.4143L18.3326 36.5835Z" fill="black"/>
<path d="M13.351 33.8211V41.6292H20.3121V40.7765H14.4282V33.8203H13.351V33.8211Z" fill="black"/>
</g>
</g>
</svg>
