<svg width="80" height="80" viewBox="0 0 80 80" fill="none" xmlns="http://www.w3.org/2000/svg">
<g style="mix-blend-mode:luminosity">
<rect width="80" height="80" fill="white"/>
<path d="M55.5419 27.5999C55.4711 27.459 55.3306 27.3883 55.1901 27.3883H52.4116C52.2711 27.3883 52.1307 27.459 52.0604 27.5999L47.1725 36.8778C47.1022 36.0663 46.6095 35.2553 45.9414 34.7609C44.8513 33.9853 42.9527 33.4561 40.8069 33.2793C39.5763 33.1733 35.9543 32.997 34.8294 32.6092C33.9854 32.2916 33.5634 31.8326 33.5634 31.1625C33.5634 29.3284 37.009 29.1865 38.1699 29.1865C40.7018 29.1865 42.6712 29.7157 44.3242 30.5626C44.4996 30.6681 44.7103 30.5979 44.816 30.4217L45.4846 29.1517C45.5902 28.9401 45.5543 28.6932 45.3082 28.5518C43.3741 27.458 41.0884 27 38.416 27C36.4112 27 34.4771 27.2818 32.8943 28.2341C32.578 28.4109 32.3318 28.6225 32.0857 28.8341C31.3823 27.8817 29.9051 27.3873 28.3935 27.3873H17.422C17.1754 27.3873 17 27.564 17 27.7756V41.7457C17 41.9926 17.1754 42.1688 17.422 42.1688H19.0745C19.2853 42.1688 19.4616 41.9921 19.4616 41.7457V29.9632C19.4616 29.7516 19.6375 29.5748 19.8488 29.5748H27.7613C29.7302 29.5748 30.7501 30.3863 30.7501 32.0442C30.7501 33.5616 29.8005 34.3372 27.9018 34.3372H22.1345L20.9742 36.5248H27.8669C29.6246 36.5248 30.9613 36.1364 31.8755 35.3608C32.1919 35.0785 32.438 34.7609 32.6492 34.4084C33.6337 34.867 35.3216 35.2194 37.7479 35.3608C40.491 35.5365 42.1784 35.7133 42.8117 35.89C44.0079 36.2077 44.6052 36.8065 44.6052 37.7594C44.6052 40.0177 41.0889 40.3701 39.2605 40.3701C36.7634 40.3701 34.3023 39.8758 32.2272 38.5002C32.0165 38.3593 31.8401 38.3942 31.7345 38.5709L30.9962 39.947C30.8557 40.1939 30.9613 40.3701 31.1018 40.4762C33.6691 42.1345 36.6234 42.5218 39.4009 42.5218C41.2647 42.5218 43.9371 42.0285 44.8165 41.3932L44.6057 41.781C44.536 41.9224 44.6057 42.1694 44.8872 42.1694H46.8213C46.9623 42.1694 47.1028 42.0633 47.1735 41.9578L53.3976 30.1399C53.4674 29.999 53.5381 29.9283 53.714 29.9283H53.9247C54.1001 29.9283 54.1708 29.999 54.2411 30.1399L57.4411 36.2082C57.5816 36.4899 57.4759 36.6667 57.1949 36.6667H51.9199L50.7596 38.8542H58.6014C58.7419 38.8542 58.8829 38.9244 58.9531 39.0658L60.4298 41.9583C60.5006 42.0638 60.6405 42.1699 60.7821 42.1699H62.7161C63.0325 42.1699 63.0325 41.8876 62.9622 41.7114L55.5419 27.5999ZM54.9794 52.894H52.1312V50.1782H54.8743V50.5655H52.5885V51.2715H54.5579V51.6946H52.5885V52.5061H54.9799L54.9794 52.894ZM49.0009 51.4477C49.3526 51.4477 49.5285 51.3063 49.5285 51.0246C49.5285 50.7069 49.3526 50.5655 48.966 50.5655H47.3478V51.4477H49.0009ZM49.0717 50.1782C49.3526 50.1782 49.5634 50.2484 49.7398 50.3898C49.9156 50.5655 49.9859 50.7423 49.9859 51.0246C49.9859 51.3063 49.9161 51.4831 49.7398 51.6593C49.5639 51.8002 49.3178 51.8709 49.0014 51.8709H47.3484V52.8934H46.9264V50.1777L49.0717 50.1782ZM44.6052 52.0123C44.6052 52.2946 44.4647 52.5415 44.1832 52.7182C43.9023 52.894 43.5151 53 43.0583 53C42.6004 53 42.2143 52.894 41.9328 52.7182C41.6513 52.5415 41.5109 52.2946 41.5109 52.0123V50.1782H41.9677V51.9067C41.9677 52.1183 42.0385 52.2951 42.2492 52.4011C42.4251 52.5066 42.706 52.5768 43.0583 52.5768C43.41 52.5768 43.6915 52.5066 43.8669 52.4011C44.0427 52.2951 44.1484 52.1188 44.1484 51.9067V50.1782H44.6052V52.0123ZM39.0497 51.5179C39.0497 51.2003 38.9087 50.9533 38.6277 50.7418C38.3811 50.565 38.1001 50.4948 37.7479 50.4948C37.3961 50.4948 37.0798 50.6009 36.8342 50.7766C36.5876 50.9882 36.4819 51.2356 36.4819 51.5174C36.4819 51.835 36.5876 52.0825 36.8342 52.294C37.0449 52.4703 37.3618 52.5758 37.7479 52.5758C38.135 52.5758 38.4514 52.4703 38.6975 52.294C38.9082 52.0825 39.0497 51.835 39.0497 51.5174V51.5179ZM39.5066 51.5179C39.5066 51.9769 39.3307 52.3294 38.9441 52.6122C38.6277 52.8591 38.2406 53 37.7479 53C37.291 53 36.869 52.8591 36.5522 52.6122C36.2004 52.3299 35.9897 51.9774 35.9897 51.5179C35.9897 51.0947 36.2004 50.7418 36.5522 50.4595C36.9039 50.2125 37.2905 50.0717 37.7479 50.0717C38.2406 50.0717 38.6277 50.2125 38.9441 50.4595C39.3307 50.7418 39.5066 51.0942 39.5066 51.5179ZM33.001 51.4477C33.3532 51.4477 33.5286 51.3063 33.5286 51.0246C33.5286 50.7069 33.3532 50.5655 32.9661 50.5655H31.3838V51.4477H33.001ZM34.0208 52.894H33.4932L32.7549 51.8714H31.3833V52.894H30.9264V50.1782H33.0712C33.3527 50.1782 33.5988 50.2484 33.7393 50.3898C33.9157 50.5655 33.9859 50.7771 33.9859 51.0246C33.9859 51.2715 33.9157 51.4477 33.8101 51.5891C33.6696 51.73 33.4937 51.8007 33.2825 51.836L34.0208 52.894ZM28.7109 51.4831C28.7109 51.9416 28.5699 52.2946 28.253 52.5763C27.9367 52.8586 27.5147 53 26.9871 53C26.4954 53 26.1083 52.8591 25.7914 52.6122C25.4043 52.3299 25.2289 51.9774 25.2289 51.5179C25.2289 51.0947 25.4043 50.7418 25.7914 50.4595C26.1077 50.2125 26.5297 50.0717 27.0225 50.0717C27.6198 50.0717 28.1125 50.2832 28.4991 50.7418L28.0772 50.9533C27.7957 50.6357 27.4444 50.4948 26.9866 50.4948C26.6353 50.4948 26.3539 50.565 26.1077 50.7418C25.8262 50.9533 25.6858 51.2003 25.6858 51.5179C25.6858 51.8355 25.8262 52.083 26.037 52.2946C26.2836 52.4708 26.6 52.5763 26.9866 52.5763C27.5844 52.5763 27.9715 52.3294 28.1469 51.8714H26.8809V51.4482H28.7099V51.4831H28.7109ZM25.335 46.4379H54.9794V46.8262H25.335V46.4379Z" fill="black"/>
</g>
</svg>
